<?xml version="1.0" standalone="no"?>
<!DOCTYPE svg PUBLIC "-//W3C//DTD SVG 20010904//EN"
 "http://www.w3.org/TR/2001/REC-SVG-20010904/DTD/svg10.dtd">
<svg version="1.0" xmlns="http://www.w3.org/2000/svg"
 width="377.000000pt" height="377.000000pt" viewBox="0 0 377.000000 377.000000"
 preserveAspectRatio="xMidYMid meet">
<metadata>
Created by potrace 1.14, written by Peter Selinger 2001-2017
</metadata>
<g transform="translate(0.000000,377.000000) scale(0.100000,-0.100000)"
fill="#000000" stroke="none">
<path d="M650 3739 c-31 -3 -65 -11 -76 -17 -12 -6 -24 -9 -27 -6 -6 7 -79
-34 -94 -52 -6 -9 -15 -16 -20 -17 -4 -1 -7 -5 -6 -9 2 -5 -4 -8 -12 -8 -8 0
-15 -7 -15 -15 0 -8 -4 -15 -8 -15 -33 0 -89 -228 -60 -246 4 -3 5 -11 2 -18
-15 -38 113 -228 147 -218 5 1 9 -2 9 -7 0 -5 19 -17 43 -27 52 -22 61 -24
118 -28 25 -1 51 -6 57 -10 6 -3 14 -2 17 4 4 6 12 7 18 2 11 -8 61 -8 135 1
17 2 37 0 44 -4 7 -4 20 -3 29 2 10 5 20 5 23 1 5 -9 89 -7 105 2 6 4 11 3 11
-2 0 -6 14 -7 34 -2 19 4 37 6 40 3 8 -9 67 -9 72 -1 3 4 14 3 25 -2 14 -8 19
-7 19 1 0 9 3 9 14 0 10 -8 16 -9 21 -1 4 7 12 7 26 0 14 -8 19 -7 19 1 0 9 3
9 14 0 10 -8 16 -9 21 -1 4 7 12 7 26 0 13 -8 19 -7 19 0 0 7 6 8 19 0 11 -5
22 -7 25 -2 5 9 53 9 61 0 3 -3 21 -2 38 2 18 4 43 3 55 -1 12 -5 22 -5 22 0
0 5 12 6 28 4 15 -2 33 -4 40 -4 6 0 28 0 47 0 19 0 41 0 48 0 6 0 24 2 40 4
15 2 27 1 27 -4 0 -4 13 -4 29 1 19 5 33 4 40 -3 6 -6 11 -7 11 -1 0 12 173
12 183 -1 4 -7 10 -7 15 0 9 13 102 15 102 2 0 -5 6 -4 13 2 8 6 17 7 21 3 4
-4 11 -7 14 -7 39 -3 94 -21 124 -41 21 -13 40 -24 43 -24 4 0 15 -8 67 -52
12 -10 18 -18 14 -18 -4 0 -1 -7 6 -15 50 -60 64 -79 51 -71 -9 5 -11 2 -7 -8
3 -9 10 -16 16 -16 5 0 6 -4 3 -10 -3 -5 -2 -10 3 -10 11 0 11 -4 16 -119 3
-98 -6 -143 -43 -216 -23 -46 -92 -125 -109 -125 -7 0 -17 -9 -24 -19 -6 -10
-18 -17 -25 -14 -7 3 -13 1 -13 -4 0 -29 -237 -55 -269 -29 -9 6 -12 7 -9 1 4
-7 -24 -11 -80 -13 -48 -1 -94 -4 -102 -6 -8 -1 -32 -6 -52 -11 -21 -4 -38
-10 -38 -14 0 -3 -18 -15 -40 -25 -22 -10 -53 -34 -69 -52 -35 -37 -80 -120
-87 -158 -2 -14 -8 -36 -13 -49 -5 -14 -5 -30 0 -40 6 -9 6 -17 2 -17 -5 0 -9
-9 -9 -20 0 -11 3 -20 7 -20 4 0 6 -8 4 -17 -1 -10 2 -23 7 -30 5 -7 7 -17 3
-23 -3 -5 -1 -10 4 -10 6 0 11 -7 11 -15 0 -17 56 -105 120 -189 25 -32 52
-68 60 -80 12 -18 58 -79 115 -154 6 -7 18 -21 28 -30 9 -9 17 -20 17 -24 0
-8 22 -37 51 -68 8 -9 13 -22 11 -30 -3 -7 0 -10 7 -6 6 4 11 0 11 -9 0 -9 4
-13 10 -10 5 3 10 0 10 -8 0 -8 13 -28 30 -45 17 -18 30 -39 30 -47 0 -8 7
-15 15 -15 8 0 15 -6 15 -14 0 -7 11 -25 25 -40 14 -15 25 -31 25 -37 0 -5 4
-9 8 -9 4 0 16 -13 25 -30 10 -16 23 -35 30 -42 7 -7 24 -29 37 -48 13 -19 29
-40 35 -47 30 -36 33 -41 28 -47 -4 -3 1 -6 10 -6 9 0 16 -3 15 -7 -3 -11 64
-103 75 -103 4 0 5 -5 2 -10 -3 -6 -2 -10 3 -10 8 0 59 -71 89 -123 7 -12 13
-18 13 -13 0 5 15 -13 32 -40 38 -57 45 -67 76 -99 13 -14 19 -25 15 -25 -4 0
-3 -4 2 -8 6 -4 23 -24 38 -45 16 -20 39 -48 52 -61 13 -13 21 -27 18 -30 -4
-3 -2 -6 3 -6 5 0 25 -14 44 -30 19 -16 41 -30 48 -30 6 0 12 -4 12 -8 0 -9
59 -30 95 -35 11 -1 25 -5 30 -8 22 -12 147 10 189 33 11 7 24 11 29 10 4 -1
7 3 7 8 0 6 6 10 13 10 7 0 32 20 54 45 22 25 38 45 35 45 -3 0 4 10 16 22 11
13 24 35 27 51 4 15 11 30 16 32 4 3 6 12 3 19 -3 8 -1 17 5 21 8 4 8 12 1 26
-6 10 -7 19 -2 19 5 0 7 12 5 27 -2 16 -6 43 -8 61 -2 19 -19 59 -36 90 -35
62 -133 200 -155 218 -7 6 -14 16 -16 24 -2 7 -15 25 -30 40 -16 15 -28 30
-28 34 0 4 -6 13 -12 20 -7 7 -23 26 -35 42 -12 16 -38 52 -59 79 -21 28 -58
77 -83 110 -25 33 -51 66 -58 73 -7 7 -13 17 -13 22 0 5 -12 21 -27 35 -15 14
-23 25 -18 25 6 0 6 3 -1 8 -6 4 -30 34 -55 67 -24 33 -47 62 -51 63 -5 2 -8
10 -8 17 0 7 -7 15 -15 19 -8 3 -15 12 -15 20 0 7 -7 16 -15 20 -8 3 -15 12
-15 20 0 8 -3 16 -7 18 -10 4 -68 88 -76 110 -4 13 3 20 28 30 19 6 35 15 35
19 0 4 10 11 23 15 12 4 46 22 75 40 28 19 55 35 59 36 14 6 58 45 132 120
109 110 122 126 164 201 6 12 15 24 19 27 10 8 81 163 81 177 0 7 3 13 7 13 4
0 7 6 7 13 0 6 8 37 17 67 9 30 16 56 16 58 0 1 1 3 1 5 10 20 18 327 9 327
-4 0 -6 10 -5 23 5 42 -16 137 -28 131 -9 -5 -9 -4 -1 5 9 10 8 19 -2 39 -8
15 -14 35 -14 44 0 9 -5 20 -11 23 -6 4 -8 13 -5 21 3 8 2 14 -3 14 -5 0 -16
20 -25 45 -10 25 -22 45 -28 45 -6 0 -8 6 -5 14 3 8 -1 17 -9 20 -8 3 -14 12
-14 21 0 8 -3 15 -8 15 -4 0 -16 16 -27 36 -10 19 -30 47 -43 62 -85 93 -123
132 -132 132 -5 0 -10 7 -10 15 0 8 -4 15 -9 15 -5 0 -16 6 -23 13 -21 22
-117 87 -127 87 -5 0 -11 3 -13 8 -3 8 -76 44 -97 48 -8 1 -17 7 -20 12 -6 9
-58 25 -64 20 -2 -2 -14 4 -28 14 -25 16 -80 30 -126 32 -13 1 -23 4 -23 7 0
3 -11 5 -25 4 -14 -2 -25 0 -25 3 0 4 -21 8 -48 9 -109 6 -1662 8 -1712 2z"/>
<path d="M604 2579 c-3 -5 -9 -7 -14 -4 -19 12 -152 -57 -172 -89 -3 -6 -16
-22 -27 -35 -30 -35 -58 -118 -60 -181 -6 -182 -5 -520 2 -520 5 0 5 -5 1 -11
-9 -16 -11 -109 -1 -109 5 0 5 -5 2 -10 -10 -16 -11 -310 -2 -310 5 0 5 -4 2
-10 -5 -8 -7 -920 -1 -980 4 -53 20 -106 37 -132 11 -14 19 -29 19 -33 0 -13
64 -70 104 -93 21 -13 52 -24 67 -25 16 -1 29 -5 29 -9 0 -7 143 -4 170 4 41
12 90 38 90 48 0 6 4 9 9 6 4 -3 27 15 50 39 23 25 39 45 36 45 -4 0 1 7 9 16
9 8 14 20 11 25 -4 5 -1 9 5 9 7 0 10 7 7 15 -4 8 -1 17 4 21 6 3 9 15 6 25
-3 10 -2 21 3 24 4 3 6 18 5 35 -1 17 1 33 6 36 5 3 4 14 -1 25 -8 13 -7 19 0
19 6 0 8 5 3 12 -9 16 -10 45 -2 79 4 14 2 33 -3 42 -6 12 -5 17 3 17 9 0 9 3
0 14 -8 10 -9 16 -1 21 7 4 7 12 0 26 -8 13 -7 25 0 39 7 14 8 26 0 39 -7 14
-7 22 0 26 8 5 8 11 0 20 -8 10 -8 19 0 35 8 14 8 25 1 33 -6 8 -6 18 -1 27 5
9 5 19 -2 27 -7 9 -7 13 1 13 8 0 9 5 1 19 -7 14 -7 22 0 26 8 5 8 11 0 20 -8
10 -8 19 0 34 8 15 8 27 0 41 -8 14 -8 20 0 20 6 0 8 5 4 12 -9 14 -12 58 -4
58 7 0 4 149 -3 156 -3 3 -1 19 3 35 5 16 5 29 0 29 -5 0 -5 13 0 30 5 16 5
32 1 35 -5 2 -5 24 -1 47 5 24 5 49 0 57 -4 8 -4 27 1 43 4 17 4 26 -2 23 -5
-4 -5 3 0 17 5 14 5 31 0 40 -6 11 -5 19 1 23 8 5 8 11 0 20 -8 10 -8 19 0 35
8 14 8 25 1 33 -6 8 -6 18 -1 27 5 9 5 19 -1 27 -7 8 -7 19 1 33 8 16 8 25 0
35 -8 9 -8 15 0 20 7 4 7 12 0 26 -8 13 -7 19 0 19 6 0 8 5 4 12 -11 17 -11
58 -1 65 4 2 3 11 -3 18 -8 10 -8 15 0 20 8 5 8 10 0 20 -8 10 -8 15 0 20 8 5
8 10 0 20 -8 9 -8 15 0 20 6 4 7 12 1 23 -5 9 -5 26 -1 38 5 12 7 24 5 26 -3
2 -7 35 -11 74 -10 105 -44 164 -138 242 -35 29 -114 54 -179 56 -37 2 -70 -1
-73 -5z"/>
</g>
</svg>
